<?xml version="1.0" standalone="no"?>
<!DOCTYPE svg PUBLIC "-//W3C//DTD SVG 20010904//EN"
 "http://www.w3.org/TR/2001/REC-SVG-20010904/DTD/svg10.dtd">
<svg version="1.0" xmlns="http://www.w3.org/2000/svg"
 width="700.000000pt" height="700.000000pt" viewBox="0 0 700.000000 700.000000"
 preserveAspectRatio="xMidYMid meet">
<metadata>
Created by potrace 1.14, written by Peter Selinger 2001-2017
</metadata>
<g transform="translate(0.000000,700.000000) scale(0.100000,-0.100000)"
fill="#000000" stroke="none">
<path d="M3354 6525 c-71 -124 -140 -245 -153 -268 -86 -151 -743 -1299 -759
-1327 -11 -19 -29 -51 -40 -70 -11 -19 -108 -190 -217 -380 -108 -190 -207
-362 -219 -384 -11 -21 -25 -46 -31 -55 -8 -13 -167 -291 -334 -584 -13 -23
-267 -467 -564 -987 -296 -520 -550 -962 -563 -982 l-24 -38 32 -1 c199 -5
6021 -2 6025 4 2 4 -122 229 -278 500 -155 270 -293 512 -307 537 -19 34 -298
522 -472 825 -9 17 -31 56 -49 89 -18 32 -47 82 -63 110 -38 63 -63 106 -98
171 -15 28 -60 106 -99 173 -39 68 -71 128 -71 133 0 5 -4 9 -10 9 -5 0 -10 4
-10 10 0 5 -14 33 -31 62 -39 65 -63 108 -99 173 -15 28 -78 138 -140 245 -62
107 -124 215 -138 240 -14 25 -139 244 -278 488 -140 244 -254 448 -254 453 0
5 -4 9 -10 9 -5 0 -10 4 -10 9 0 9 -565 1002 -593 1041 -14 20 -21 10 -143
-205z m296 -1750 c90 -148 171 -283 180 -300 9 -16 313 -523 675 -1125 361
-602 663 -1106 670 -1120 l13 -25 -1699 0 c-934 0 -1699 4 -1699 8 -1 4 205
351 456 770 251 419 464 774 473 789 53 91 766 1276 767 1274 1 0 75 -122 164
-271z"/>
<path d="M3483 4368 c4 -10 2 -17 -4 -15 -9 2 -59 -77 -141 -223 -11 -19 -53
-91 -93 -160 -271 -467 -547 -945 -579 -1000 -20 -36 -41 -72 -46 -80 -30 -46
-130 -223 -130 -228 0 -4 -9 -18 -20 -32 -11 -14 -20 -30 -20 -35 0 -7 326
-11 1035 -10 569 0 1035 2 1035 5 0 9 -16 37 -120 215 -29 50 -64 110 -78 135
-14 25 -33 57 -43 72 -11 14 -19 29 -19 32 0 6 -260 456 -280 486 -6 8 -16 27
-23 43 -6 15 -15 27 -19 27 -4 0 -8 4 -8 9 0 11 -428 752 -443 766 -7 7 -8 4
-4 -7z"/>
</g>
</svg>
