<?xml version="1.0" encoding="utf-8"?>
<!-- Generator: Adobe Illustrator 16.0.0, SVG Export Plug-In . SVG Version: 6.00 Build 0)  -->
<!DOCTYPE svg PUBLIC "-//W3C//DTD SVG 1.1//EN" "http://www.w3.org/Graphics/SVG/1.1/DTD/svg11.dtd" [
	<!ENTITY ns_flows "http://ns.adobe.com/Flows/1.0/">
	<!ENTITY ns_extend "http://ns.adobe.com/Extensibility/1.0/">
	<!ENTITY ns_ai "http://ns.adobe.com/AdobeIllustrator/10.0/">
	<!ENTITY ns_graphs "http://ns.adobe.com/Graphs/1.0/">
]>
<svg version="1.1" id="Layer_1" xmlns:x="&ns_extend;" xmlns:i="&ns_ai;" xmlns:graph="&ns_graphs;"
	 xmlns="http://www.w3.org/2000/svg" xmlns:xlink="http://www.w3.org/1999/xlink" xmlns:a="http://ns.adobe.com/AdobeSVGViewerExtensions/3.0/"
	 x="0px" y="0px" width="34.278px" height="33.238px" viewBox="0 0 34.278 33.238" enable-background="new 0 0 34.278 33.238"
	 xml:space="preserve">
<g>
	<path display="none" fill-rule="evenodd" clip-rule="evenodd" fill="#EEEEEE" d="M17.149,23.344
		c-3.671-0.108-7.252-0.624-10.504-2.489C2.9,18.708,0.629,15.367,1.05,10.851c0.201-2.156,1.37-3.882,2.944-5.362
		c2.845-2.677,6.326-3.816,10.093-4.278c3.779-0.462,7.497-0.198,11.078,1.167c3.086,1.176,5.837,2.848,7.304,5.972
		c1.316,2.801,1.103,5.63-0.417,8.299c-1.993,3.501-5.326,5.076-9.046,5.999C21.089,23.123,19.136,23.381,17.149,23.344z"/>
	<path fill-rule="evenodd" clip-rule="evenodd" fill="#FEFEFE" d="M12.724,6.654c-0.182,0.548-0.645,0.798-0.964,1.157
		c-0.608,0.682-0.507,1.275,0.348,1.614c0.885,0.352,1.778,0.39,2.603-0.199c0.451-0.323,0.885-0.67,1.335-0.994
		c1.642-1.18,2.337-0.983,3.502-0.039c1.941,1.575,3.8,3.242,5.671,4.896c0.408,0.36,0.627,0.771,0.216,1.219
		c-0.392,0.427-0.878,0.434-1.337,0.039c-0.716-0.614-1.434-1.227-2.149-1.843c-0.148-0.128-0.326-0.32-0.502-0.17
		c-0.245,0.208,0.001,0.411,0.136,0.558c0.583,0.63,1.181,1.249,1.783,1.862c0.328,0.335,0.52,0.69,0.126,1.08
		c-0.369,0.365-0.793,0.689-1.312,0.25c-0.571-0.482-1.112-1-1.668-1.498c-0.157-0.139-0.309-0.399-0.554-0.18
		c-0.298,0.267,0.001,0.435,0.154,0.614c0.361,0.421,0.722,0.844,1.092,1.257c0.236,0.264,0.598,0.473,0.16,0.876
		c-0.384,0.354-0.766,0.457-1.183,0.104c-0.442-0.376-0.854-0.789-1.3-1.16c-0.121-0.101-0.271-0.359-0.487-0.126
		c-0.18,0.193-0.018,0.388,0.086,0.525c0.217,0.288,0.481,0.539,0.727,0.805c0.359,0.39,0.199,0.582-0.253,0.661
		c-0.789,0.136-1.108-0.135-1.07-0.91c0.044-0.881-0.469-1.628-1.412-1.917c-0.354-0.108-0.482-0.253-0.549-0.607
		c-0.172-0.9-0.828-1.409-1.784-1.395c-0.233,0.003-0.417,0.037-0.597-0.152c-0.56-0.595-1.278-0.613-2.012-0.494
		c-0.219,0.035-0.429,0.159-0.64,0.017c-0.66-0.444-1.316-0.447-2.054-0.147c-0.547,0.223-0.847-0.422-1.308-0.577
		c-1.462-0.492-2.915-1.009-4.424-1.349c-1.256-0.284-1.253-0.336-0.751-1.508c0.554-1.29,1.489-2.268,2.467-3.228
		C5.088,5.432,5.288,5.562,5.56,5.646c1.769,0.546,3.479,1.33,5.397,1.279C11.543,6.909,12.079,6.651,12.724,6.654z"/>
	<path fill-rule="evenodd" clip-rule="evenodd" fill="#FEFEFE" d="M17.693,21.198c-4.353-0.151-8.053-0.862-11.348-3.008
		c-2.152-1.4-3.779-3.21-4.271-5.842c-0.148-0.796,0.061-1.068,0.859-0.894c1.566,0.343,3.11,0.774,4.532,1.546
		c0.348,0.19,0.633,0.469,0.594,0.929c-0.022,0.261,0.008,0.563,0.193,0.706c1.031,0.794,2.06,1.6,3.158,2.29
		c0.298,0.188,0.66,0.402,0.974,0.51c1.198,0.415,2.117,1.388,3.388,1.621c0.132,0.023,0.303,0.08,0.4,0.023
		c0.841-0.49,1.708-0.124,2.564-0.156c1.251-0.048,2.479-0.477,3.523-1.222c0.417-0.297,0.827-0.565,1.313-0.692
		c0.411-0.107,0.746-0.328,0.866-0.711c0.157-0.501,0.509-0.712,0.95-0.839c0.847-0.245,1.208-0.874,1.25-1.678
		c0.023-0.427,0.164-0.606,0.548-0.788c1.288-0.609,2.682-0.873,4.02-1.31c0.808-0.264,1.021-0.095,0.973,0.754
		c-0.084,1.486-0.857,2.674-1.818,3.721c-2.452,2.67-5.647,3.972-9.114,4.597C19.929,20.996,18.58,21.364,17.693,21.198z"/>
	<path fill-rule="evenodd" clip-rule="evenodd" fill="#FEFEFE" d="M17.849,5.055c1.181,0.067,2.295,0.328,3.33,0.807
		c2.287,1.06,4.588,1.154,6.955,0.313c1.449-0.516,1.672-0.41,2.611,0.836c0.586,0.779,1.036,1.604,1.41,2.517
		c0.307,0.748-0.031,0.842-0.529,0.93c-1.316,0.231-2.606,0.635-3.777,1.208c-1.507,0.735-2.581,0.634-3.766-0.625
		c-1.151-1.222-2.579-2.18-3.859-3.285c-1.781-1.538-2.947-1.57-4.784-0.08c-0.324,0.262-0.638,0.539-0.981,0.772
		c-0.39,0.266-0.797,0.507-1.308,0.478c-0.284-0.016-0.619,0.008-0.756-0.25c-0.119-0.224,0.09-0.503,0.245-0.671
		c1.265-1.371,2.519-2.772,4.576-2.9C17.437,5.091,17.658,5.07,17.849,5.055z"/>
	<path fill-rule="evenodd" clip-rule="evenodd" fill="#FEFEFE" d="M6.483,4.813c2.33-1.409,4.8-2.313,7.494-2.604
		c1.155-0.125,2.301-0.37,3.47-0.322c3.624,0.149,7.062,0.997,10.245,2.777c0.142,0.079,0.362,0.114,0.36,0.307
		c-0.002,0.258-0.263,0.232-0.434,0.3c-1.819,0.719-3.622,0.664-5.422-0.081c-1.229-0.508-2.475-1.016-3.813-1.092
		c-1.274-0.073-2.53,0.111-3.685,0.74c-2.276,1.242-4.63,1.335-7.046,0.452C7.34,5.174,7.02,5.08,6.706,4.966
		C6.634,4.94,6.576,4.877,6.483,4.813z"/>
	<path fill-rule="evenodd" clip-rule="evenodd" fill="#FEFEFE" d="M10.687,14.359c-0.663,0.27-1.313,0.522-1.653-0.338
		C8.859,13.581,9,13.183,9.466,13.01c0.795-0.294,1.181,0.16,1.375,0.937c0.424-0.379,0.709-0.863,1.269-0.821
		c0.558,0.042,0.886,0.414,1.109,0.899c0.148,0.323,0.326,0.148,0.535,0.043c0.398-0.201,0.794-0.202,1.161,0.114
		c0.338,0.292,0.426,0.635,0.288,1.05c-0.17,0.514-0.078,0.743,0.543,0.6c0.667-0.153,1.16,0.133,1.334,0.813
		c0.175,0.686-0.178,1.137-0.784,1.382c-0.689,0.279-1.139-0.094-1.405-0.677c-0.187-0.411-0.309-0.662-0.833-0.39
		c-0.639,0.333-1.036-0.175-1.236-0.634c-0.167-0.383-0.195-0.494-0.658-0.363C11.273,16.214,10.819,15.705,10.687,14.359z"/>
</g>
<path fill-rule="evenodd" clip-rule="evenodd" fill="#FFFFFF" d="M18.58,31.286c-0.26,0.017-0.478,0.018-0.691,0.047
	c-0.605,0.082-0.856-0.132-0.829-0.78c0.046-1.058,0.038-2.121,0.006-3.18c-0.031-1.028-0.412-1.439-1.234-1.442
	c-0.863-0.003-1.28,0.461-1.29,1.479c-0.011,1.278-0.002,2.558-0.002,3.878c-0.552,0-1.014,0-1.579,0
	c0-1.334,0.007-2.637-0.003-3.94c-0.006-0.692-0.187-1.281-1.004-1.406c-0.917-0.14-1.521,0.389-1.537,1.401
	c-0.021,1.281-0.004,2.563-0.004,3.918c-0.5,0-0.956,0-1.646,0c0.087-1.691-0.033-3.44,0.322-5.087
	c0.4-1.857,2.726-2.45,4.266-1.292c0.129,0.097,0.256,0.198,0.385,0.298c0.33-0.222,0.607-0.463,0.927-0.617
	c1.664-0.797,3.675,0.175,3.879,2.017C18.715,28.115,18.58,29.684,18.58,31.286z"/>
<path fill-rule="evenodd" clip-rule="evenodd" fill="#FFFFFF" d="M19.353,29.175c0.702-0.013,1.356-0.389,1.86,0.47
	c0.339,0.578,1.682,0.665,2.24,0.267c0.439-0.313,0.365-0.91-0.186-1.106c-0.652-0.232-1.336-0.375-2.005-0.563
	c-1.272-0.359-1.79-0.922-1.751-1.896c0.039-0.996,0.853-1.92,1.981-2.036c0.756-0.079,1.558-0.024,2.298,0.148
	c0.812,0.19,1.313,0.782,1.333,1.74c-0.674,0.101-1.302,0.356-1.794-0.396c-0.138-0.211-0.555-0.396-0.797-0.351
	c-0.468,0.091-1.187,0.26-1.292,0.569c-0.228,0.669,0.5,0.7,0.96,0.833c0.587,0.17,1.195,0.278,1.768,0.487
	c1.032,0.378,1.524,1.046,1.481,1.892c-0.046,0.901-0.693,1.723-1.69,1.942c-1.094,0.24-2.213,0.315-3.269-0.212
	C19.793,30.614,19.396,30.061,19.353,29.175z"/>
<image display="none" overflow="visible" width="1440" height="900" xlink:href="F9A49146.jpg"  transform="matrix(1 0 0 1 -232.5957 -685.8091)">
</image>
</svg>
